<svg width="25" height="24" viewBox="0 0 25 24" fill="none" xmlns="http://www.w3.org/2000/svg">
<g id="Badge-Obat/007-stethoscope" clip-path="url(#clip0_4_23)">
<g id="Group">
<g id="Group_2">
<path id="Vector" d="M18.0017 1.14282H15.4237V2.73751H17.2044V6.29898C17.2044 8.98098 15.0223 11.1628 12.3406 11.1628H11.9685C9.28649 11.1628 7.1047 8.9807 7.1047 6.29898V2.73751H8.88543V1.14282H6.30735C5.86696 1.14282 5.51001 1.49978 5.51001 1.94017V6.29898C5.51001 9.86017 8.40731 12.7575 11.9685 12.7575H12.3406C15.9018 12.7575 18.7991 9.86017 18.7991 6.29898V1.94017C18.7991 1.49978 18.4421 1.14282 18.0017 1.14282Z" fill="white"/>
</g>
</g>
<g id="Group_3">
<g id="Group_4">
<path id="Vector_2" d="M15.3439 0C14.9035 0 14.5465 0.356953 14.5465 0.797344V3.02991C14.5465 3.4703 14.9035 3.82725 15.3439 3.82725C15.7842 3.82725 16.1412 3.4703 16.1412 3.02991V0.797344C16.1412 0.356953 15.7842 0 15.3439 0Z" fill="white"/>
</g>
</g>
<g id="Group_5">
<g id="Group_6">
<path id="Vector_3" d="M9.04478 0C8.60439 0 8.24744 0.356953 8.24744 0.797344V3.02991C8.24744 3.4703 8.60439 3.82725 9.04478 3.82725C9.48517 3.82725 9.84212 3.4703 9.84212 3.02991V0.797344C9.84212 0.356953 9.48517 0 9.04478 0Z" fill="white"/>
</g>
</g>
<g id="Group_7">
<g id="Group_8">
<path id="Vector_4" d="M13.005 16.4521V11.9338H11.4103V16.4521H8.8322C6.75114 16.4521 5.05811 18.1451 5.05811 20.2259C5.05811 22.307 6.76309 24 8.85878 24H9.23087C11.3119 24 13.005 22.307 13.005 20.2259V18.0468H15.7159V16.4521H13.005ZM11.4103 20.2256C11.4103 21.4272 10.4325 22.4051 9.23087 22.4051H8.85878C7.62184 22.4051 6.65279 21.448 6.65279 20.2256C6.65279 19.0241 7.63061 18.0465 8.8322 18.0465H11.4103V20.2256Z" fill="white"/>
</g>
</g>
<g id="Group_9">
<g id="Group_10">
<path id="Vector_5" d="M17.4436 14.7512C16.0663 14.7512 14.9456 15.8718 14.9456 17.2496C14.9456 18.6268 16.0661 19.7476 17.4436 19.7476C18.8212 19.7476 19.942 18.6268 19.942 17.2496C19.942 15.872 18.8214 14.7512 17.4436 14.7512ZM17.4436 18.1527C16.9455 18.1527 16.5402 17.7474 16.5402 17.2493C16.5402 16.751 16.9456 16.3457 17.4436 16.3457C17.9419 16.3457 18.3473 16.751 18.3473 17.2493C18.3473 17.7474 17.9419 18.1527 17.4436 18.1527Z" fill="white"/>
</g>
</g>
</g>
<defs>
<clipPath id="clip0_4_23">
<rect width="24" height="24" fill="white" transform="translate(0.5)"/>
</clipPath>
</defs>
</svg>
